<svg xmlns="http://www.w3.org/2000/svg" viewBox="0 0 82.21 53.79"><defs><style>.cls-1{fill:#fff;}</style></defs><title>Asset 2</title><g id="Layer_2" data-name="Layer 2"><g id="Layer_1-2" data-name="Layer 1"><path class="cls-1" d="M82.11.24c-.83-.83-2.86.75-3.53,1.2C76.13,3.09,73,3.8,70.67,5.68l-.06,0c-2.89,1.63-5.74,3.53-8.9,4.58a12.22,12.22,0,0,0-3.62,2.12A14.46,14.46,0,0,0,56,14.34,8.65,8.65,0,0,0,52.11,16c-1.29.94-2.53,2-3.75,3-3.62-.7-8,.3-10,3.53a11.76,11.76,0,0,0-2-.82A6.89,6.89,0,0,1,33.76,21a6.56,6.56,0,0,1-3.09-2.35,2.79,2.79,0,0,1-.37-1.57,1,1,0,0,1-.07.15,1.29,1.29,0,0,1-.19.21c-.39.67-1.53,0-2-.29a3.47,3.47,0,0,1-1.71-2.39,1.64,1.64,0,0,1,1.07-1.81,1,1,0,0,1,1.33.75h0c-.52-.58-1.48-.75-1.87.1a2,2,0,0,0,.26,2c.41.55,1.91,1.94,2.73,1.47.09-.1.18-.24.24-.31a2.31,2.31,0,0,0,.29-.45,2.89,2.89,0,0,1,0-.29s0,0,0,0a.5.5,0,0,0,0,.12,0,0,0,0,1,0,0v0a9.19,9.19,0,0,0,.26,1.57,5.67,5.67,0,0,0,2.87,2.34c.78.36,2.46,1.11,3.51.8A1.7,1.7,0,0,0,37.8,20a3.17,3.17,0,0,0,0-1c0-.41.24-.53.42-.84s-.05-.57-.32-.73a4.14,4.14,0,0,1,.55-.38.2.2,0,0,0,.07-.27c-.22-.32-.44-.65-.67-1,.55-.34,1.18-.81,1-1.32s-.55-.67-.8-.92a11.15,11.15,0,0,0-.89-.79c.17-.62.43-1.47-.15-1.87S36.51,9.37,36,8.76c.19-.69,1.13-1.93.35-2.52-.45-.33-1-.45-1.49-.77a3.65,3.65,0,0,0-1.54-.66C32,4.6,31.18,5.69,30,5.66a5.63,5.63,0,0,0-3.57,1.15c-1.92,1.42-3.41,4.12-3,6.53.25,1.35,1,2.56,1.35,3.9a2.81,2.81,0,0,0,.53,1.34,3.54,3.54,0,0,0,1,.72,12.61,12.61,0,0,1,.19,1.84,18.25,18.25,0,0,1-3.34,2.71,8.68,8.68,0,0,0-4-1.42,7.44,7.44,0,0,0-4.42,1l.69.42a2.44,2.44,0,0,1,.74.65,0,0,0,0,1-.05.06,13,13,0,0,0-2.55-1.08l-.34-.13a6.31,6.31,0,0,0-2.41,0A5.88,5.88,0,0,0,9.21,24a9.83,9.83,0,0,1-1.9,2.87,0,0,0,0,1-.07,0,36.35,36.35,0,0,0,1.59-3.41,1.92,1.92,0,0,0,.09-.32,9.74,9.74,0,0,0-.12-1.43,20.85,20.85,0,0,1-.4-3.53,8.63,8.63,0,0,1,.85-3.34H9.7c-.13.44.22.65.63.92a1,1,0,0,0,.92,0,1.81,1.81,0,0,0,1,.45,1.35,1.35,0,0,0,.73-.08c.43.43.89.82,1.55.46a2,2,0,0,0,1.07-1.13,1.35,1.35,0,0,0,.95-.5,4.12,4.12,0,0,0,.2-2.34c0-.53-.76-.9-1.13-1.16a9,9,0,0,1-1.28-1,.88.88,0,0,0-.68-.33,4.23,4.23,0,0,0-1.13.31c-.62.15-1.26.22-1.89.31a16.82,16.82,0,0,0-2.81.55,2.56,2.56,0,0,0-1.62,1,3.23,3.23,0,0,0-.35,1.22A16.84,16.84,0,0,1,4.5,16C3.77,17.09,3,18.11,2.3,19.24a7.93,7.93,0,0,0-1.16,4.52c-.24,1-.69,1.91-1,2.89-.47,1.41.51,2.18,1.64,2.73A7.27,7.27,0,0,0,6,31.68a7.74,7.74,0,0,0,4.14,2.19,9.76,9.76,0,0,0,3.54-.52,7.76,7.76,0,0,1,1.26-.16A6,6,0,0,1,17.37,29a6,6,0,0,1-1.65-.41s0,0,0,0a15.17,15.17,0,0,0,3.16-.1,4.27,4.27,0,0,0,2.58-1,.11.11,0,0,1,.08,0,16.29,16.29,0,0,0-1.95-.92,18.29,18.29,0,0,1-2.34-1.07s0,0,0,0a11.89,11.89,0,0,1,3.15.87A4.2,4.2,0,0,1,22.31,28s0,.06,0,0a4.25,4.25,0,0,0-.63-.46s0,0,0,.05a1.08,1.08,0,0,1-.4.81,32.29,32.29,0,0,1,3,5.17c.31.6.58,1.17,1.27,1.41a13.26,13.26,0,0,0,1.36.41,14.78,14.78,0,0,0,3,.52c1.28,0,1.87-.7,2.63-1.59l1.09-1.26a1.73,1.73,0,0,0,.48-1,.57.57,0,0,1,0-.13,2.43,2.43,0,0,0-.08-.56c-.44-1.76-1.44-3.37-1.65-5.18,0,0,.07-.06.09,0a21.45,21.45,0,0,0,1.59,3.65,7.43,7.43,0,0,1,.65,1.91,13.66,13.66,0,0,0,4.23,2c1.92.4,3.12-.79,3.86-2.44.37-.83.7-1.67,1-2.53a9.25,9.25,0,0,0,.6-2.31s0-.05,0-.07,0-.06,0-.09c0-1.29-.69-2.53-.31-3.82,0,0,.07,0,.06,0a5.38,5.38,0,0,0,.47,2,13.88,13.88,0,0,1,2.1-3.69,0,0,0,0,1,.08,0c-.72,1.46-1.69,2.85-1.92,4.49a.14.14,0,0,1,0,.06h0c0,.12,0,.24.05.36A24.85,24.85,0,0,1,56.68,18.9s.07.05,0,.07C52.42,20.73,48.17,22.9,45,26.33a5.57,5.57,0,0,1-.24,1.45,16.52,16.52,0,0,1-2,4.95,5.29,5.29,0,0,1-.61.71h0a.9.9,0,0,0,1.24.64s.07,0,0,.05a1,1,0,0,1-1,.26,1.16,1.16,0,0,1-.69-.63,3.22,3.22,0,0,1-2.62.6,15.4,15.4,0,0,1-4.36-1.9,1.33,1.33,0,0,1,0,.19A8.89,8.89,0,0,1,32.83,35a3.66,3.66,0,0,1-2.26,1.55,8.19,8.19,0,0,1-2.92-.29.77.77,0,0,1,0,.45.89.89,0,0,1-.49.72,2.53,2.53,0,0,1-1.74-.25s0-.07,0-.07A7.33,7.33,0,0,0,27,37c.39-.16.36-.52.34-.89L27,36.08a4.82,4.82,0,0,1-2.74-1.3,19.45,19.45,0,0,1-1.54-2.93,22.89,22.89,0,0,0-2-3.11.05.05,0,0,1,0,0A3.55,3.55,0,0,1,19.7,29a11.07,11.07,0,0,1-1.71.11A7.07,7.07,0,0,0,16,32a10.07,10.07,0,0,0-.43,1.61,11.77,11.77,0,0,0,3.93,4.25C20.17,39,21.26,40,22,41.05a14.69,14.69,0,0,1,1.85,3.05,5.25,5.25,0,0,1,.27,1.59,11.25,11.25,0,0,0,.48,3.63,5.05,5.05,0,0,0,2.08,2.44,10.57,10.57,0,0,0,3.94,1.36,26.49,26.49,0,0,0,4.52.66,13.87,13.87,0,0,0,4.18-.69A4.79,4.79,0,0,0,41.9,51a5.82,5.82,0,0,0,1.22-3.22,14.85,14.85,0,0,0-.09-1.6c0-.38,0-.77,0-1.15,0-.72.27-1.41.32-2.13a17.48,17.48,0,0,0-.18-2.15,4.56,4.56,0,0,1,0-.64,25.65,25.65,0,0,0,3-6.21,23.6,23.6,0,0,0,.9-3.71c.1-.56.18-1.13.28-1.69,3.16.44,5.93-1.79,7.6-4.47a7.09,7.09,0,0,1-2.34.23.05.05,0,0,1,0-.1,18.18,18.18,0,0,0,4.58-1.82c.26-.22.52-.44.78-.68,1.06-1,2.18-1.91,3.31-2.82a10.79,10.79,0,0,0,5.69-4c1.78-2.11,3.71-4.1,5.51-6.2a11,11,0,0,0,2-.35,8,8,0,0,0,2.86-2.11l1.4-1.44c.25-.26.85-.66.85-1.08a.69.69,0,0,0,0-.22q1-1.05,1.92-2.1C81.77,1.2,82.47.6,82.11.24ZM14.57,27.6c-.85.75-2,.33-2.84-.2A3.24,3.24,0,0,1,10,24.68s0,0,0,0a4,4,0,0,0,1.78,2.12c.83.46,1.75,1.1,2.74.75C14.57,27.53,14.6,27.58,14.57,27.6Zm7.8.55h0ZM26.9,39.23a2,2,0,0,1-1.64,0s0,0,0,0a2.82,2.82,0,0,0,1.15-.2c.32-.13.75-.44.77-.82,0,0,.08-.1.12,0C27.59,38.52,27.27,39,26.9,39.23Zm4.33,6.27a5.06,5.06,0,0,1-1.51-2.28,8.46,8.46,0,0,1,0-2.61s0,0,0,0a7,7,0,0,0,.57,3,15,15,0,0,1,1,1.87S31.26,45.53,31.23,45.5Zm.28.44s0,0,0,0S31.53,45.94,31.51,45.94Zm2.62-9.74a4.39,4.39,0,0,0-1.42.86,5.28,5.28,0,0,1-.87,1c-.54.39-1.34-.11-1.82-.35,0,0,0,0,0,0,.42,0,1.31.28,1.65.07a11.42,11.42,0,0,0,.9-.8,4.84,4.84,0,0,1,1.51-.83C34.15,36.06,34.2,36.17,34.13,36.2ZM35.57,43s0,0,0,0c1.59-.55,1.24-1.85.91-3.1-.12-.45,0-1.13-.12-1.62a1.11,1.11,0,0,1-.52.45s-.09,0,0-.07a1,1,0,0,0,.33-.84.2.2,0,0,1,0-.17,4.39,4.39,0,0,0-.38-1.47,4.87,4.87,0,0,1-.43-1.5.06.06,0,1,1,.12,0,4.84,4.84,0,0,0,.91,1.74,1.29,1.29,0,0,1,.25.85,3.87,3.87,0,0,1,0,.49,2.9,2.9,0,0,1,.19,1.4c0,.66.4,1.2.42,1.85C37.18,41.83,36.64,43,35.57,43Zm1.6,4.16,0,.06a.3.3,0,0,1-.57,0v-.06a.33.33,0,0,1,.16-.36.24.24,0,0,1,.28,0A.33.33,0,0,1,37.17,47.12Zm4.15-5s0,0,0,0S41.34,42.07,41.32,42.07Zm.24-.33a.07.07,0,0,1-.13-.06,6.88,6.88,0,0,0,.28-2c-.05-.52-.19-1-.29-1.52a6.67,6.67,0,0,1,0-2.67s0,0,0,0a6.27,6.27,0,0,0,.18,2c.14.52.36,1,.46,1.57A3.89,3.89,0,0,1,41.56,41.74ZM63.34,12.91A10.76,10.76,0,0,1,60,15.21c.77,0,1.52.14,2.29.2a0,0,0,0,1,0,.05,15.08,15.08,0,0,1-3.22,0h0a4.08,4.08,0,0,1-2.63-.33s0,0,0,0c2.56.7,4.79-1,6.81-2.29C63.33,12.81,63.38,12.87,63.34,12.91Z"/></g></g></svg>